# xmcd
#
# Track frame offsets:
#	182
#	65410
#	143825
#	180020
#
# Disc length: 3566 seconds
#
# Revision: 0
# Processed by: cddbd v1.5.1PL0 Copyright (c) Steve Scherf et al.
# Submitted via: dBpowerAMP V4.0
#
DISCID=2b0dec04
DTITLE=Man'Serotte§Buisson Ardent - Kassé-Kô
DYEAR=1900
DGENRE=Tribal
TTITLE0=Béf dandwa
TTITLE1=Mouché véyé kô ou
TTITLE2=A o Bagn
TTITLE3=Mo di Manman mo kalé
EXTD=
EXTT0=
EXTT1=
EXTT2=
EXTT3=
PLAYORDER=
